<svg xmlns="http://www.w3.org/2000/svg" width="560" height="380" viewBox="0 0 560 380" role="img" aria-labelledby="title desc">
  <title id="title">Wolds Record product screenshot placeholder</title>
  <desc id="desc">A simple interface placeholder illustrating where a future product screenshot will be inserted.</desc>
  <rect width="560" height="380" fill="#f8fafc"/>
  <rect x="20" y="20" width="520" height="340" rx="12" fill="#ffffff" stroke="#cbd5e1"/>
  <rect x="40" y="45" width="120" height="12" rx="6" fill="#94a3b8"/>
  <rect x="40" y="75" width="480" height="36" rx="8" fill="#e2e8f0"/>
  <rect x="40" y="125" width="230" height="210" rx="8" fill="#f1f5f9" stroke="#cbd5e1"/>
  <rect x="290" y="125" width="230" height="96" rx="8" fill="#f1f5f9" stroke="#cbd5e1"/>
  <rect x="290" y="239" width="230" height="96" rx="8" fill="#f1f5f9" stroke="#cbd5e1"/>
  <rect x="54" y="143" width="180" height="10" rx="5" fill="#94a3b8"/>
  <rect x="54" y="165" width="196" height="8" rx="4" fill="#cbd5e1"/>
  <rect x="54" y="181" width="168" height="8" rx="4" fill="#cbd5e1"/>
  <rect x="304" y="143" width="145" height="10" rx="5" fill="#94a3b8"/>
  <rect x="304" y="165" width="190" height="8" rx="4" fill="#cbd5e1"/>
  <rect x="304" y="257" width="145" height="10" rx="5" fill="#94a3b8"/>
  <rect x="304" y="279" width="190" height="8" rx="4" fill="#cbd5e1"/>
</svg>
